<svg width="20" height="21" viewBox="0 0 20 21" fill="none" xmlns="http://www.w3.org/2000/svg">
<path d="M14.1667 3C14.3856 2.78113 14.6455 2.60752 14.9314 2.48906C15.2174 2.37061 15.5239 2.30965 15.8334 2.30965C16.1429 2.30965 16.4494 2.37061 16.7354 2.48906C17.0214 2.60752 17.2812 2.78113 17.5001 3C17.719 3.21887 17.8926 3.47871 18.011 3.76468C18.1295 4.05064 18.1904 4.35714 18.1904 4.66667C18.1904 4.9762 18.1295 5.2827 18.011 5.56866C17.8926 5.85463 17.719 6.11447 17.5001 6.33334L6.25008 17.5833L1.66675 18.8333L2.91675 14.25L14.1667 3Z" stroke="#667085" stroke-width="1.66667" stroke-linecap="round" stroke-linejoin="round"/>
</svg>
